<mxfile host="65bd71144e">
    <diagram id="WU_5i0Dm1dTP4wIK54uw" name="Page-1">
        <mxGraphModel dx="1905" dy="392" grid="1" gridSize="10" guides="1" tooltips="1" connect="1" arrows="1" fold="1" page="1" pageScale="1" pageWidth="850" pageHeight="1100" math="0" shadow="0">
            <root>
                <mxCell id="0"/>
                <mxCell id="1" parent="0"/>
                <mxCell id="4" value="greet" style="rounded=0;whiteSpace=wrap;html=1;" vertex="1" parent="1">
                    <mxGeometry x="120" y="20" width="120" height="60" as="geometry"/>
                </mxCell>
                <mxCell id="5" value="" style="endArrow=classic;html=1;" edge="1" parent="1">
                    <mxGeometry width="50" height="50" relative="1" as="geometry">
                        <mxPoint x="50" y="49.74" as="sourcePoint"/>
                        <mxPoint x="120" y="49.74" as="targetPoint"/>
                        <Array as="points">
                            <mxPoint x="80" y="49.74"/>
                        </Array>
                    </mxGeometry>
                </mxCell>
                <mxCell id="6" value="name: str" style="edgeLabel;html=1;align=center;verticalAlign=middle;resizable=0;points=[];" vertex="1" connectable="0" parent="5">
                    <mxGeometry x="-0.5624" relative="1" as="geometry">
                        <mxPoint as="offset"/>
                    </mxGeometry>
                </mxCell>
                <mxCell id="8" value="str" style="endArrow=classic;html=1;" edge="1" parent="1">
                    <mxGeometry width="50" height="50" relative="1" as="geometry">
                        <mxPoint x="250" y="49.74" as="sourcePoint"/>
                        <mxPoint x="320" y="49.74" as="targetPoint"/>
                        <Array as="points">
                            <mxPoint x="280" y="49.74"/>
                        </Array>
                    </mxGeometry>
                </mxCell>
                <mxCell id="11" value="goldilocks" style="rounded=0;whiteSpace=wrap;html=1;" vertex="1" parent="1">
                    <mxGeometry x="120" y="120" width="120" height="60" as="geometry"/>
                </mxCell>
                <mxCell id="12" value="" style="endArrow=classic;html=1;" edge="1" parent="1">
                    <mxGeometry width="50" height="50" relative="1" as="geometry">
                        <mxPoint x="50" y="149.74" as="sourcePoint"/>
                        <mxPoint x="120" y="149.74" as="targetPoint"/>
                        <Array as="points">
                            <mxPoint x="80" y="149.74"/>
                        </Array>
                    </mxGeometry>
                </mxCell>
                <mxCell id="13" value="bed_length: int" style="edgeLabel;html=1;align=center;verticalAlign=middle;resizable=0;points=[];" vertex="1" connectable="0" parent="12">
                    <mxGeometry x="-0.5624" relative="1" as="geometry">
                        <mxPoint as="offset"/>
                    </mxGeometry>
                </mxCell>
                <mxCell id="14" value="str" style="endArrow=classic;html=1;" edge="1" parent="1">
                    <mxGeometry width="50" height="50" relative="1" as="geometry">
                        <mxPoint x="250" y="149.74" as="sourcePoint"/>
                        <mxPoint x="320" y="149.74" as="targetPoint"/>
                        <Array as="points"/>
                    </mxGeometry>
                </mxCell>
                <mxCell id="16" value="square_list_from_user" style="rounded=0;whiteSpace=wrap;html=1;" vertex="1" parent="1">
                    <mxGeometry x="120" y="240" width="120" height="60" as="geometry"/>
                </mxCell>
                <mxCell id="17" value="" style="endArrow=classic;html=1;" edge="1" parent="1">
                    <mxGeometry width="50" height="50" relative="1" as="geometry">
                        <mxPoint x="50" y="269.74" as="sourcePoint"/>
                        <mxPoint x="120" y="269.74" as="targetPoint"/>
                        <Array as="points">
                            <mxPoint x="80" y="269.74"/>
                        </Array>
                    </mxGeometry>
                </mxCell>
                <mxCell id="29" value="numbers: List[int]" style="edgeLabel;html=1;align=center;verticalAlign=middle;resizable=0;points=[];" vertex="1" connectable="0" parent="17">
                    <mxGeometry x="-0.384" relative="1" as="geometry">
                        <mxPoint x="-21" as="offset"/>
                    </mxGeometry>
                </mxCell>
                <mxCell id="19" value="List[int]" style="endArrow=classic;html=1;" edge="1" parent="1">
                    <mxGeometry width="50" height="50" relative="1" as="geometry">
                        <mxPoint x="250" y="269.74" as="sourcePoint"/>
                        <mxPoint x="320" y="269.74" as="targetPoint"/>
                        <Array as="points">
                            <mxPoint x="280" y="269.74"/>
                        </Array>
                    </mxGeometry>
                </mxCell>
                <mxCell id="20" value="fibonacci_stop" style="rounded=0;whiteSpace=wrap;html=1;" vertex="1" parent="1">
                    <mxGeometry x="120" y="350" width="120" height="60" as="geometry"/>
                </mxCell>
                <mxCell id="21" value="" style="endArrow=classic;html=1;" edge="1" parent="1">
                    <mxGeometry width="50" height="50" relative="1" as="geometry">
                        <mxPoint x="50" y="379.74" as="sourcePoint"/>
                        <mxPoint x="120" y="379.74" as="targetPoint"/>
                        <Array as="points">
                            <mxPoint x="80" y="379.74"/>
                        </Array>
                    </mxGeometry>
                </mxCell>
                <mxCell id="22" value="max_value: int" style="edgeLabel;html=1;align=center;verticalAlign=middle;resizable=0;points=[];" vertex="1" connectable="0" parent="21">
                    <mxGeometry x="-0.5624" relative="1" as="geometry">
                        <mxPoint as="offset"/>
                    </mxGeometry>
                </mxCell>
                <mxCell id="23" value="List[int]" style="endArrow=classic;html=1;" edge="1" parent="1">
                    <mxGeometry width="50" height="50" relative="1" as="geometry">
                        <mxPoint x="250" y="379.74" as="sourcePoint"/>
                        <mxPoint x="320" y="379.74" as="targetPoint"/>
                        <Array as="points">
                            <mxPoint x="280" y="379.74"/>
                        </Array>
                    </mxGeometry>
                </mxCell>
                <mxCell id="24" value="clean_pitch" style="rounded=0;whiteSpace=wrap;html=1;" vertex="1" parent="1">
                    <mxGeometry x="120" y="470" width="120" height="60" as="geometry"/>
                </mxCell>
                <mxCell id="25" value="" style="endArrow=classic;html=1;" edge="1" parent="1">
                    <mxGeometry width="50" height="50" relative="1" as="geometry">
                        <mxPoint x="50" y="499.74" as="sourcePoint"/>
                        <mxPoint x="120" y="499.74" as="targetPoint"/>
                        <Array as="points">
                            <mxPoint x="80" y="499.74"/>
                        </Array>
                    </mxGeometry>
                </mxCell>
                <mxCell id="26" value="pitch_angles: List[float]" style="edgeLabel;html=1;align=center;verticalAlign=middle;resizable=0;points=[];" vertex="1" connectable="0" parent="25">
                    <mxGeometry x="-0.5624" relative="1" as="geometry">
                        <mxPoint x="-6" y="-20" as="offset"/>
                    </mxGeometry>
                </mxCell>
                <mxCell id="27" value="List[float]" style="endArrow=classic;html=1;" edge="1" parent="1">
                    <mxGeometry width="50" height="50" relative="1" as="geometry">
                        <mxPoint x="250" y="499.74" as="sourcePoint"/>
                        <mxPoint x="320" y="499.74" as="targetPoint"/>
                        <Array as="points"/>
                    </mxGeometry>
                </mxCell>
                <mxCell id="31" value="status_signals: List[int]" style="text;html=1;align=center;verticalAlign=middle;resizable=0;points=[];autosize=1;strokeColor=none;fillColor=none;" vertex="1" parent="1">
                    <mxGeometry x="-20" y="500" width="140" height="30" as="geometry"/>
                </mxCell>
            </root>
        </mxGraphModel>
    </diagram>
</mxfile>